<?xml version="1.0" encoding="UTF-8" standalone="no"?>
<!DOCTYPE svg PUBLIC "-//W3C//DTD SVG 1.1//EN"
 "http://www.w3.org/Graphics/SVG/1.1/DTD/svg11.dtd">
<!-- Generated by graphviz version 2.38.0 (20140413.2041)
 -->
<!-- Title: deps Pages: 1 -->
<svg width="555pt" height="404pt"
 viewBox="0.00 0.00 554.72 404.00" xmlns="http://www.w3.org/2000/svg" xmlns:xlink="http://www.w3.org/1999/xlink">
<g id="graph0" class="graph" transform="scale(1 1) rotate(0) translate(4 400)">
<title>deps</title>
<polygon fill="white" stroke="none" points="-4,4 -4,-400 550.716,-400 550.716,4 -4,4"/>
<!-- Adjunction -->
<g id="node1" class="node"><title>Adjunction</title>
<polygon fill="none" stroke="black" points="126.711,-324 36.7216,-324 36.7216,-288 126.711,-288 126.711,-324"/>
<text text-anchor="middle" x="81.7161" y="-301.8" font-family="Times,serif" font-size="14.00">Adjunction.v</text>
</g>
<!-- Setoid -->
<g id="node2" class="node"><title>Setoid</title>
<ellipse fill="none" stroke="black" cx="293.716" cy="-18" rx="32.9168" ry="18"/>
<text text-anchor="middle" x="293.716" y="-13.8" font-family="Times,serif" font-size="14.00">Setoid</text>
</g>
<!-- Adjunction&#45;&gt;Setoid -->
<g id="edge1" class="edge"><title>Adjunction&#45;&gt;Setoid</title>
<path fill="none" stroke="black" d="M45.6895,-287.815C31.7967,-279.165 17.4199,-267.237 9.71608,-252 -26.4592,-180.452 51.9298,-105.699 96.7161,-72 142.208,-37.7694 208.243,-25.6299 251.085,-21.3352"/>
<polygon fill="black" stroke="black" points="251.54,-24.8085 261.185,-20.4249 250.911,-17.8368 251.54,-24.8085"/>
</g>
<!-- Category -->
<g id="node3" class="node"><title>Category</title>
<polygon fill="none" stroke="black" points="236.124,-108 159.308,-108 159.308,-72 236.124,-72 236.124,-108"/>
<text text-anchor="middle" x="197.716" y="-85.8" font-family="Times,serif" font-size="14.00">Category.v</text>
</g>
<!-- Adjunction&#45;&gt;Category -->
<g id="edge2" class="edge"><title>Adjunction&#45;&gt;Category</title>
<path fill="none" stroke="black" d="M86.9175,-287.732C98.031,-251.434 124.405,-168.546 140.716,-144 147.844,-133.273 157.566,-123.187 166.961,-114.751"/>
<polygon fill="black" stroke="black" points="169.42,-117.254 174.713,-108.076 164.852,-111.949 169.42,-117.254"/>
</g>
<!-- Functor -->
<g id="node4" class="node"><title>Functor</title>
<polygon fill="none" stroke="black" points="366.503,-180 296.929,-180 296.929,-144 366.503,-144 366.503,-180"/>
<text text-anchor="middle" x="331.716" y="-157.8" font-family="Times,serif" font-size="14.00">Functor.v</text>
</g>
<!-- Adjunction&#45;&gt;Functor -->
<g id="edge3" class="edge"><title>Adjunction&#45;&gt;Functor</title>
<path fill="none" stroke="black" d="M126.545,-303.678C171.292,-300.18 239.827,-288.654 285.716,-252 305.39,-236.286 317.523,-209.884 324.352,-189.906"/>
<polygon fill="black" stroke="black" points="327.764,-190.726 327.452,-180.136 321.092,-188.609 327.764,-190.726"/>
</g>
<!-- Natrans -->
<g id="node5" class="node"><title>Natrans</title>
<polygon fill="none" stroke="black" points="88.7542,-252 18.678,-252 18.678,-216 88.7542,-216 88.7542,-252"/>
<text text-anchor="middle" x="53.7161" y="-229.8" font-family="Times,serif" font-size="14.00">Natrans.v</text>
</g>
<!-- Adjunction&#45;&gt;Natrans -->
<g id="edge4" class="edge"><title>Adjunction&#45;&gt;Natrans</title>
<path fill="none" stroke="black" d="M74.7947,-287.697C71.6414,-279.813 67.8378,-270.304 64.3346,-261.546"/>
<polygon fill="black" stroke="black" points="67.5215,-260.089 60.5578,-252.104 61.0221,-262.689 67.5215,-260.089"/>
</g>
<!-- Category&#45;&gt;Setoid -->
<g id="edge8" class="edge"><title>Category&#45;&gt;Setoid</title>
<path fill="none" stroke="black" d="M221.446,-71.6966C235.057,-61.7724 252.2,-49.2722 266.374,-38.9373"/>
<polygon fill="black" stroke="black" points="268.739,-41.5443 274.757,-32.8245 264.615,-35.8883 268.739,-41.5443"/>
</g>
<!-- Functor&#45;&gt;Setoid -->
<g id="edge12" class="edge"><title>Functor&#45;&gt;Setoid</title>
<path fill="none" stroke="black" d="M327.132,-143.871C320.627,-119.564 308.653,-74.8187 300.945,-46.0132"/>
<polygon fill="black" stroke="black" points="304.282,-44.9445 298.316,-36.1893 297.52,-46.7542 304.282,-44.9445"/>
</g>
<!-- Functor&#45;&gt;Category -->
<g id="edge13" class="edge"><title>Functor&#45;&gt;Category</title>
<path fill="none" stroke="black" d="M298.936,-143.876C281.091,-134.554 258.819,-122.919 239.714,-112.939"/>
<polygon fill="black" stroke="black" points="241.106,-109.718 230.622,-108.19 237.865,-115.922 241.106,-109.718"/>
</g>
<!-- Natrans&#45;&gt;Setoid -->
<g id="edge23" class="edge"><title>Natrans&#45;&gt;Setoid</title>
<path fill="none" stroke="black" d="M54.5791,-215.854C56.1771,-197.094 60.7324,-166.677 73.7161,-144 96.996,-103.34 110.856,-96.6246 150.716,-72 183.399,-51.8089 224.972,-37.4797 254.858,-28.854"/>
<polygon fill="black" stroke="black" points="255.831,-32.2162 264.516,-26.1471 253.942,-25.4759 255.831,-32.2162"/>
</g>
<!-- Natrans&#45;&gt;Category -->
<g id="edge24" class="edge"><title>Natrans&#45;&gt;Category</title>
<path fill="none" stroke="black" d="M59.8342,-215.782C67.4223,-196.397 81.9459,-164.887 102.716,-144 116.2,-130.441 133.878,-119.316 150.324,-110.822"/>
<polygon fill="black" stroke="black" points="151.893,-113.951 159.299,-106.375 148.785,-107.679 151.893,-113.951"/>
</g>
<!-- Natrans&#45;&gt;Functor -->
<g id="edge25" class="edge"><title>Natrans&#45;&gt;Functor</title>
<path fill="none" stroke="black" d="M88.925,-224.134C139.266,-211.459 231.806,-188.157 286.95,-174.272"/>
<polygon fill="black" stroke="black" points="287.95,-177.629 296.793,-171.794 286.241,-170.841 287.95,-177.629"/>
</g>
<!-- Algebra -->
<g id="node6" class="node"><title>Algebra</title>
<polygon fill="none" stroke="black" points="480.307,-252 409.125,-252 409.125,-216 480.307,-216 480.307,-252"/>
<text text-anchor="middle" x="444.716" y="-229.8" font-family="Times,serif" font-size="14.00">Algebra.v</text>
</g>
<!-- Algebra&#45;&gt;Setoid -->
<g id="edge5" class="edge"><title>Algebra&#45;&gt;Setoid</title>
<path fill="none" stroke="black" d="M439.523,-215.749C433.49,-197.167 422.449,-167.153 407.716,-144 382.106,-103.752 343.103,-64.2582 318.011,-40.7628"/>
<polygon fill="black" stroke="black" points="320.107,-37.9338 310.388,-33.7159 315.356,-43.0741 320.107,-37.9338"/>
</g>
<!-- Algebra&#45;&gt;Category -->
<g id="edge6" class="edge"><title>Algebra&#45;&gt;Category</title>
<path fill="none" stroke="black" d="M435.872,-215.973C424.57,-195.863 403.141,-162.777 375.716,-144 336.927,-117.443 284.588,-103.945 246.712,-97.2449"/>
<polygon fill="black" stroke="black" points="246.876,-93.7239 236.436,-95.5302 245.724,-100.628 246.876,-93.7239"/>
</g>
<!-- Algebra&#45;&gt;Functor -->
<g id="edge7" class="edge"><title>Algebra&#45;&gt;Functor</title>
<path fill="none" stroke="black" d="M417.073,-215.876C402.298,-206.724 383.925,-195.342 368.013,-185.485"/>
<polygon fill="black" stroke="black" points="369.809,-182.481 359.465,-180.19 366.123,-188.431 369.809,-182.481"/>
</g>
<!-- Cone -->
<g id="node7" class="node"><title>Cone</title>
<polygon fill="none" stroke="black" points="276.768,-252 220.664,-252 220.664,-216 276.768,-216 276.768,-252"/>
<text text-anchor="middle" x="248.716" y="-229.8" font-family="Times,serif" font-size="14.00">Cone.v</text>
</g>
<!-- Cone&#45;&gt;Setoid -->
<g id="edge9" class="edge"><title>Cone&#45;&gt;Setoid</title>
<path fill="none" stroke="black" d="M252.323,-215.849C260.142,-178.662 278.707,-90.3744 288.087,-45.7715"/>
<polygon fill="black" stroke="black" points="291.522,-46.4416 290.155,-35.9354 284.672,-45.0011 291.522,-46.4416"/>
</g>
<!-- Cone&#45;&gt;Category -->
<g id="edge10" class="edge"><title>Cone&#45;&gt;Category</title>
<path fill="none" stroke="black" d="M242.564,-215.871C233.796,-191.457 217.623,-146.426 207.282,-117.635"/>
<polygon fill="black" stroke="black" points="210.564,-116.418 203.89,-108.189 203.976,-118.784 210.564,-116.418"/>
</g>
<!-- Cone&#45;&gt;Functor -->
<g id="edge11" class="edge"><title>Cone&#45;&gt;Functor</title>
<path fill="none" stroke="black" d="M269.233,-215.697C279.586,-206.965 292.302,-196.24 303.555,-186.75"/>
<polygon fill="black" stroke="black" points="306.047,-189.227 311.435,-180.104 301.534,-183.876 306.047,-189.227"/>
</g>
<!-- ListFunctor -->
<g id="node8" class="node"><title>ListFunctor</title>
<polygon fill="none" stroke="black" points="476.282,-324 385.151,-324 385.151,-288 476.282,-288 476.282,-324"/>
<text text-anchor="middle" x="430.716" y="-301.8" font-family="Times,serif" font-size="14.00">ListFunctor.v</text>
</g>
<!-- ListFunctor&#45;&gt;Setoid -->
<g id="edge14" class="edge"><title>ListFunctor&#45;&gt;Setoid</title>
<path fill="none" stroke="black" d="M458.516,-287.872C470.487,-278.837 483.211,-266.587 489.716,-252 496.232,-237.387 494.843,-231.156 489.716,-216 463.911,-139.71 439.44,-126.03 379.716,-72 363.804,-57.6052 343.459,-44.8642 326.553,-35.4841"/>
<polygon fill="black" stroke="black" points="328.026,-32.3019 317.564,-30.6294 324.699,-38.461 328.026,-32.3019"/>
</g>
<!-- ListFunctor&#45;&gt;Category -->
<g id="edge15" class="edge"><title>ListFunctor&#45;&gt;Category</title>
<path fill="none" stroke="black" d="M385.025,-300.175C327.637,-293.105 233.965,-277.882 211.716,-252 179.893,-214.979 184.861,-153.905 191.31,-118.579"/>
<polygon fill="black" stroke="black" points="194.797,-118.988 193.319,-108.497 187.932,-117.62 194.797,-118.988"/>
</g>
<!-- ListFunctor&#45;&gt;Functor -->
<g id="edge16" class="edge"><title>ListFunctor&#45;&gt;Functor</title>
<path fill="none" stroke="black" d="M418.774,-287.871C401.53,-263.137 369.533,-217.242 349.503,-188.512"/>
<polygon fill="black" stroke="black" points="352.29,-186.391 343.7,-180.189 346.548,-190.394 352.29,-186.391"/>
</g>
<!-- ListFunctor&#45;&gt;Algebra -->
<g id="edge17" class="edge"><title>ListFunctor&#45;&gt;Algebra</title>
<path fill="none" stroke="black" d="M434.177,-287.697C435.72,-279.983 437.574,-270.712 439.294,-262.112"/>
<polygon fill="black" stroke="black" points="442.766,-262.597 441.295,-252.104 435.902,-261.224 442.766,-262.597"/>
</g>
<!-- Monad -->
<g id="node9" class="node"><title>Monad</title>
<polygon fill="none" stroke="black" points="187.878,-396 121.554,-396 121.554,-360 187.878,-360 187.878,-396"/>
<text text-anchor="middle" x="154.716" y="-373.8" font-family="Times,serif" font-size="14.00">Monad.v</text>
</g>
<!-- Monad&#45;&gt;Adjunction -->
<g id="edge22" class="edge"><title>Monad&#45;&gt;Adjunction</title>
<path fill="none" stroke="black" d="M136.671,-359.697C127.654,-351.05 116.598,-340.449 106.773,-331.027"/>
<polygon fill="black" stroke="black" points="109.194,-328.499 99.5535,-324.104 104.349,-333.552 109.194,-328.499"/>
</g>
<!-- Monad&#45;&gt;Setoid -->
<g id="edge18" class="edge"><title>Monad&#45;&gt;Setoid</title>
<path fill="none" stroke="black" d="M187.967,-374.988C261.741,-370.004 436.482,-355.167 485.716,-324 526.235,-298.35 546.716,-282.955 546.716,-235 546.716,-235 546.716,-235 546.716,-161 546.716,-65.464 407.834,-33.5447 335.867,-23.4178"/>
<polygon fill="black" stroke="black" points="336.132,-19.9224 325.759,-22.0768 335.212,-26.8616 336.132,-19.9224"/>
</g>
<!-- Monad&#45;&gt;Category -->
<g id="edge19" class="edge"><title>Monad&#45;&gt;Category</title>
<path fill="none" stroke="black" d="M155.852,-359.899C158.624,-321.167 166.711,-223.898 182.716,-144 184.452,-135.334 186.89,-126.017 189.296,-117.649"/>
<polygon fill="black" stroke="black" points="192.664,-118.603 192.166,-108.02 185.955,-116.604 192.664,-118.603"/>
</g>
<!-- Monad&#45;&gt;Functor -->
<g id="edge20" class="edge"><title>Monad&#45;&gt;Functor</title>
<path fill="none" stroke="black" d="M187.856,-360.284C224.671,-339.91 282.964,-301.928 313.716,-252 325.188,-233.374 329.512,-208.791 331.067,-190.181"/>
<polygon fill="black" stroke="black" points="334.572,-190.201 331.695,-180.004 327.585,-189.769 334.572,-190.201"/>
</g>
<!-- Monad&#45;&gt;Natrans -->
<g id="edge21" class="edge"><title>Monad&#45;&gt;Natrans</title>
<path fill="none" stroke="black" d="M121.469,-373.306C91.2945,-367.995 48.4478,-355.116 27.7161,-324 14.9835,-304.889 24.5151,-279.441 35.4513,-260.652"/>
<polygon fill="black" stroke="black" points="38.5134,-262.356 40.8414,-252.02 32.5759,-258.648 38.5134,-262.356"/>
</g>
</g>
</svg>
