<?xml version="1.0" encoding="UTF-8" standalone="no"?>
<!DOCTYPE svg PUBLIC "-//W3C//DTD SVG 1.1//EN"
 "http://www.w3.org/Graphics/SVG/1.1/DTD/svg11.dtd">
<!-- Generated by graphviz version 2.38.0 (20140413.2041)
 -->
<!-- Title: deps Pages: 1 -->
<svg width="369pt" height="332pt"
 viewBox="0.00 0.00 369.29 332.00" xmlns="http://www.w3.org/2000/svg" xmlns:xlink="http://www.w3.org/1999/xlink">
<g id="graph0" class="graph" transform="scale(1 1) rotate(0) translate(4 328)">
<title>deps</title>
<polygon fill="white" stroke="none" points="-4,4 -4,-328 365.286,-328 365.286,4 -4,4"/>
<!-- Category -->
<g id="node1" class="node"><title>Category</title>
<polygon fill="none" stroke="black" points="207.161,-108 130.345,-108 130.345,-72 207.161,-72 207.161,-108"/>
<text text-anchor="middle" x="168.753" y="-85.8" font-family="Times,serif" font-size="14.00">Category.v</text>
</g>
<!-- Setoid -->
<g id="node2" class="node"><title>Setoid</title>
<ellipse fill="none" stroke="black" cx="135.753" cy="-18" rx="32.9168" ry="18"/>
<text text-anchor="middle" x="135.753" y="-13.8" font-family="Times,serif" font-size="14.00">Setoid</text>
</g>
<!-- Category&#45;&gt;Setoid -->
<g id="edge1" class="edge"><title>Category&#45;&gt;Setoid</title>
<path fill="none" stroke="black" d="M160.596,-71.6966C156.783,-63.6095 152.164,-53.8117 147.949,-44.8691"/>
<polygon fill="black" stroke="black" points="151.019,-43.1751 143.589,-35.6223 144.688,-46.1601 151.019,-43.1751"/>
</g>
<!-- Functor -->
<g id="node3" class="node"><title>Functor</title>
<polygon fill="none" stroke="black" points="139.54,-180 69.9664,-180 69.9664,-144 139.54,-144 139.54,-180"/>
<text text-anchor="middle" x="104.753" y="-157.8" font-family="Times,serif" font-size="14.00">Functor.v</text>
</g>
<!-- Functor&#45;&gt;Category -->
<g id="edge3" class="edge"><title>Functor&#45;&gt;Category</title>
<path fill="none" stroke="black" d="M120.573,-143.697C128.324,-135.22 137.792,-124.864 146.278,-115.583"/>
<polygon fill="black" stroke="black" points="148.95,-117.846 153.115,-108.104 143.784,-113.123 148.95,-117.846"/>
</g>
<!-- Functor&#45;&gt;Setoid -->
<g id="edge2" class="edge"><title>Functor&#45;&gt;Setoid</title>
<path fill="none" stroke="black" d="M107.661,-143.865C110.798,-125.889 116.105,-96.85 121.753,-72 123.681,-63.5172 126.017,-54.3352 128.224,-46.0347"/>
<polygon fill="black" stroke="black" points="131.676,-46.6783 130.91,-36.1112 124.919,-44.8495 131.676,-46.6783"/>
</g>
<!-- Natrans -->
<g id="node4" class="node"><title>Natrans</title>
<polygon fill="none" stroke="black" points="251.791,-252 181.715,-252 181.715,-216 251.791,-216 251.791,-252"/>
<text text-anchor="middle" x="216.753" y="-229.8" font-family="Times,serif" font-size="14.00">Natrans.v</text>
</g>
<!-- Natrans&#45;&gt;Category -->
<g id="edge5" class="edge"><title>Natrans&#45;&gt;Category</title>
<path fill="none" stroke="black" d="M210.963,-215.871C202.746,-191.564 187.621,-146.819 177.884,-118.013"/>
<polygon fill="black" stroke="black" points="181.082,-116.542 174.564,-108.189 174.45,-118.783 181.082,-116.542"/>
</g>
<!-- Natrans&#45;&gt;Setoid -->
<g id="edge4" class="edge"><title>Natrans&#45;&gt;Setoid</title>
<path fill="none" stroke="black" d="M221.627,-215.728C229.335,-184.77 241.026,-118.71 215.753,-72 206.342,-54.6063 188.458,-41.9479 171.983,-33.373"/>
<polygon fill="black" stroke="black" points="173.045,-29.9988 162.519,-28.7912 169.995,-36.2992 173.045,-29.9988"/>
</g>
<!-- Natrans&#45;&gt;Functor -->
<g id="edge6" class="edge"><title>Natrans&#45;&gt;Functor</title>
<path fill="none" stroke="black" d="M189.355,-215.876C174.846,-206.808 156.837,-195.552 141.168,-185.759"/>
<polygon fill="black" stroke="black" points="142.592,-182.522 132.257,-180.19 138.882,-188.458 142.592,-182.522"/>
</g>
<!-- Adjunction -->
<g id="node5" class="node"><title>Adjunction</title>
<polygon fill="none" stroke="black" points="175.748,-324 85.7586,-324 85.7586,-288 175.748,-288 175.748,-324"/>
<text text-anchor="middle" x="130.753" y="-301.8" font-family="Times,serif" font-size="14.00">Adjunction.v</text>
</g>
<!-- Adjunction&#45;&gt;Category -->
<g id="edge8" class="edge"><title>Adjunction&#45;&gt;Category</title>
<path fill="none" stroke="black" d="M133.799,-287.849C140.386,-250.753 156.002,-162.81 163.94,-118.103"/>
<polygon fill="black" stroke="black" points="167.391,-118.69 165.693,-108.232 160.499,-117.466 167.391,-118.69"/>
</g>
<!-- Adjunction&#45;&gt;Setoid -->
<g id="edge7" class="edge"><title>Adjunction&#45;&gt;Setoid</title>
<path fill="none" stroke="black" d="M85.7356,-298.775C57.3085,-292.26 22.6762,-278.983 4.75312,-252 -4.09959,-238.672 1.99466,-231.76 4.75312,-216 16.4843,-148.974 14.8613,-125.621 56.7531,-72 68.8228,-56.551 86.6847,-44.0337 102.372,-35.051"/>
<polygon fill="black" stroke="black" points="104.2,-38.041 111.297,-30.1751 100.844,-31.8979 104.2,-38.041"/>
</g>
<!-- Adjunction&#45;&gt;Functor -->
<g id="edge9" class="edge"><title>Adjunction&#45;&gt;Functor</title>
<path fill="none" stroke="black" d="M127.617,-287.871C123.186,-263.67 115.045,-219.211 109.769,-190.393"/>
<polygon fill="black" stroke="black" points="113.144,-189.395 107.9,-180.189 106.259,-190.656 113.144,-189.395"/>
</g>
<!-- Adjunction&#45;&gt;Natrans -->
<g id="edge10" class="edge"><title>Adjunction&#45;&gt;Natrans</title>
<path fill="none" stroke="black" d="M152.012,-287.697C162.843,-278.881 176.171,-268.032 187.913,-258.474"/>
<polygon fill="black" stroke="black" points="190.193,-261.132 195.739,-252.104 185.774,-255.703 190.193,-261.132"/>
</g>
<!-- Cone -->
<g id="node6" class="node"><title>Cone</title>
<polygon fill="none" stroke="black" points="69.8049,-252 13.7013,-252 13.7013,-216 69.8049,-216 69.8049,-252"/>
<text text-anchor="middle" x="41.7531" y="-229.8" font-family="Times,serif" font-size="14.00">Cone.v</text>
</g>
<!-- Cone&#45;&gt;Category -->
<g id="edge12" class="edge"><title>Cone&#45;&gt;Category</title>
<path fill="none" stroke="black" d="M41.1614,-215.752C41.3838,-196.34 44.5248,-164.804 60.7531,-144 75.6807,-124.863 99.309,-112.179 120.663,-104.033"/>
<polygon fill="black" stroke="black" points="122.034,-107.26 130.276,-100.603 119.681,-100.668 122.034,-107.26"/>
</g>
<!-- Cone&#45;&gt;Setoid -->
<g id="edge11" class="edge"><title>Cone&#45;&gt;Setoid</title>
<path fill="none" stroke="black" d="M38.5938,-215.755C35.9554,-197.438 33.7734,-167.888 41.7531,-144 55.5111,-102.814 88.7629,-64.3048 111.784,-41.2007"/>
<polygon fill="black" stroke="black" points="114.465,-43.474 119.156,-33.9744 109.565,-38.4751 114.465,-43.474"/>
</g>
<!-- Cone&#45;&gt;Functor -->
<g id="edge13" class="edge"><title>Cone&#45;&gt;Functor</title>
<path fill="none" stroke="black" d="M57.3262,-215.697C64.9553,-207.22 74.2759,-196.864 82.6288,-187.583"/>
<polygon fill="black" stroke="black" points="85.2711,-189.879 89.3592,-180.104 80.068,-185.196 85.2711,-189.879"/>
</g>
<!-- ListFunctor -->
<g id="node7" class="node"><title>ListFunctor</title>
<polygon fill="none" stroke="black" points="361.319,-252 270.188,-252 270.188,-216 361.319,-216 361.319,-252"/>
<text text-anchor="middle" x="315.753" y="-229.8" font-family="Times,serif" font-size="14.00">ListFunctor.v</text>
</g>
<!-- ListFunctor&#45;&gt;Category -->
<g id="edge15" class="edge"><title>ListFunctor&#45;&gt;Category</title>
<path fill="none" stroke="black" d="M298.021,-215.871C272.085,-190.817 223.673,-144.052 194.019,-115.406"/>
<polygon fill="black" stroke="black" points="196.172,-112.62 186.548,-108.189 191.308,-117.654 196.172,-112.62"/>
</g>
<!-- ListFunctor&#45;&gt;Setoid -->
<g id="edge14" class="edge"><title>ListFunctor&#45;&gt;Setoid</title>
<path fill="none" stroke="black" d="M311.227,-215.876C302.038,-183.982 278.447,-114.839 236.753,-72 218.988,-53.7467 193.576,-40.4558 172.687,-31.7489"/>
<polygon fill="black" stroke="black" points="173.737,-28.3997 163.152,-27.9555 171.15,-34.904 173.737,-28.3997"/>
</g>
<!-- ListFunctor&#45;&gt;Functor -->
<g id="edge16" class="edge"><title>ListFunctor&#45;&gt;Functor</title>
<path fill="none" stroke="black" d="M269.969,-217.811C234.185,-205.939 184.732,-189.533 149.274,-177.77"/>
<polygon fill="black" stroke="black" points="150.261,-174.41 139.668,-174.583 148.057,-181.054 150.261,-174.41"/>
</g>
</g>
</svg>
