<?xml version="1.0" encoding="UTF-8" standalone="no"?>
<!DOCTYPE svg PUBLIC "-//W3C//DTD SVG 1.1//EN"
 "http://www.w3.org/Graphics/SVG/1.1/DTD/svg11.dtd">
<!-- Generated by graphviz version 2.38.0 (20140413.2041)
 -->
<!-- Title: deps Pages: 1 -->
<svg width="980pt" height="404pt"
 viewBox="0.00 0.00 979.89 404.00" xmlns="http://www.w3.org/2000/svg" xmlns:xlink="http://www.w3.org/1999/xlink">
<g id="graph0" class="graph" transform="scale(1 1) rotate(0) translate(4 400)">
<title>deps</title>
<polygon fill="white" stroke="none" points="-4,4 -4,-400 975.895,-400 975.895,4 -4,4"/>
<!-- src/Algebra/Algebra -->
<g id="node1" class="node"><title>src/Algebra/Algebra</title>
<polygon fill="none" stroke="black" points="154.199,-252 23.6317,-252 23.6317,-216 154.199,-216 154.199,-252"/>
<text text-anchor="middle" x="88.9152" y="-229.8" font-family="Times,serif" font-size="14.00">src/Algebra/Algebra</text>
</g>
<!-- src/Base/Category -->
<g id="node2" class="node"><title>src/Base/Category</title>
<polygon fill="none" stroke="black" points="476.051,-108 357.78,-108 357.78,-72 476.051,-72 476.051,-108"/>
<text text-anchor="middle" x="416.915" y="-85.8" font-family="Times,serif" font-size="14.00">src/Base/Category</text>
</g>
<!-- src/Algebra/Algebra&#45;&gt;src/Base/Category -->
<g id="edge1" class="edge"><title>src/Algebra/Algebra&#45;&gt;src/Base/Category</title>
<path fill="none" stroke="black" d="M106.417,-215.982C128.05,-195.879 166.814,-162.801 205.915,-144 250.664,-122.483 305.095,-109.089 347.464,-101.149"/>
<polygon fill="black" stroke="black" points="348.196,-104.573 357.41,-99.343 346.946,-97.6858 348.196,-104.573"/>
</g>
<!-- src/Base/Functor -->
<g id="node3" class="node"><title>src/Base/Functor</title>
<polygon fill="none" stroke="black" points="472.284,-180 361.546,-180 361.546,-144 472.284,-144 472.284,-180"/>
<text text-anchor="middle" x="416.915" y="-157.8" font-family="Times,serif" font-size="14.00">src/Base/Functor</text>
</g>
<!-- src/Algebra/Algebra&#45;&gt;src/Base/Functor -->
<g id="edge2" class="edge"><title>src/Algebra/Algebra&#45;&gt;src/Base/Functor</title>
<path fill="none" stroke="black" d="M154.438,-218.888C158.998,-217.91 163.525,-216.94 167.915,-216 230.182,-202.674 301.229,-187.56 351.452,-176.892"/>
<polygon fill="black" stroke="black" points="352.471,-180.254 361.525,-174.753 351.016,-173.407 352.471,-180.254"/>
</g>
<!-- src/Base/Setoid -->
<g id="node5" class="node"><title>src/Base/Setoid</title>
<ellipse fill="none" stroke="black" cx="416.915" cy="-18" rx="65.2477" ry="18"/>
<text text-anchor="middle" x="416.915" y="-13.8" font-family="Times,serif" font-size="14.00">src/Base/Setoid</text>
</g>
<!-- src/Base/Category&#45;&gt;src/Base/Setoid -->
<g id="edge6" class="edge"><title>src/Base/Category&#45;&gt;src/Base/Setoid</title>
<path fill="none" stroke="black" d="M416.915,-71.6966C416.915,-63.9827 416.915,-54.7125 416.915,-46.1124"/>
<polygon fill="black" stroke="black" points="420.415,-46.1043 416.915,-36.1043 413.415,-46.1044 420.415,-46.1043"/>
</g>
<!-- src/Base/Functor&#45;&gt;src/Base/Category -->
<g id="edge8" class="edge"><title>src/Base/Functor&#45;&gt;src/Base/Category</title>
<path fill="none" stroke="black" d="M416.915,-143.697C416.915,-135.983 416.915,-126.712 416.915,-118.112"/>
<polygon fill="black" stroke="black" points="420.415,-118.104 416.915,-108.104 413.415,-118.104 420.415,-118.104"/>
</g>
<!-- src/Algebra/ListFunctor -->
<g id="node4" class="node"><title>src/Algebra/ListFunctor</title>
<polygon fill="none" stroke="black" points="163.94,-324 13.8901,-324 13.8901,-288 163.94,-288 163.94,-324"/>
<text text-anchor="middle" x="88.9152" y="-301.8" font-family="Times,serif" font-size="14.00">src/Algebra/ListFunctor</text>
</g>
<!-- src/Algebra/ListFunctor&#45;&gt;src/Algebra/Algebra -->
<g id="edge5" class="edge"><title>src/Algebra/ListFunctor&#45;&gt;src/Algebra/Algebra</title>
<path fill="none" stroke="black" d="M88.9152,-287.697C88.9152,-279.983 88.9152,-270.712 88.9152,-262.112"/>
<polygon fill="black" stroke="black" points="92.4153,-262.104 88.9152,-252.104 85.4153,-262.104 92.4153,-262.104"/>
</g>
<!-- src/Algebra/ListFunctor&#45;&gt;src/Base/Category -->
<g id="edge3" class="edge"><title>src/Algebra/ListFunctor&#45;&gt;src/Base/Category</title>
<path fill="none" stroke="black" d="M51.5242,-287.798C37.371,-279.203 22.7871,-267.321 14.9152,-252 7.603,-237.769 6.72601,-229.745 14.9152,-216 49.3186,-158.255 84.6671,-166.755 147.915,-144 213.586,-120.373 292.275,-106.425 347.526,-98.8185"/>
<polygon fill="black" stroke="black" points="348.116,-102.271 357.561,-97.4711 347.185,-95.333 348.116,-102.271"/>
</g>
<!-- src/Algebra/ListFunctor&#45;&gt;src/Base/Functor -->
<g id="edge4" class="edge"><title>src/Algebra/ListFunctor&#45;&gt;src/Base/Functor</title>
<path fill="none" stroke="black" d="M117.627,-287.884C150.51,-268.736 206.373,-237.579 256.915,-216 287.38,-202.993 322.189,-191.126 351.542,-181.933"/>
<polygon fill="black" stroke="black" points="352.755,-185.222 361.273,-178.921 350.685,-178.535 352.755,-185.222"/>
</g>
<!-- src/Base/Discrete -->
<g id="node6" class="node"><title>src/Base/Discrete</title>
<polygon fill="none" stroke="black" points="971.874,-180 857.956,-180 857.956,-144 971.874,-144 971.874,-180"/>
<text text-anchor="middle" x="914.915" y="-157.8" font-family="Times,serif" font-size="14.00">src/Base/Discrete</text>
</g>
<!-- src/Base/Discrete&#45;&gt;src/Base/Category -->
<g id="edge7" class="edge"><title>src/Base/Discrete&#45;&gt;src/Base/Category</title>
<path fill="none" stroke="black" d="M857.68,-146.716C853.036,-145.734 848.405,-144.814 843.915,-144 718.719,-121.315 571.097,-105.355 486.311,-97.2127"/>
<polygon fill="black" stroke="black" points="486.575,-93.7221 476.289,-96.2586 485.912,-100.691 486.575,-93.7221"/>
</g>
<!-- src/Base/Natrans -->
<g id="node7" class="node"><title>src/Base/Natrans</title>
<polygon fill="none" stroke="black" points="396.271,-252 285.56,-252 285.56,-216 396.271,-216 396.271,-252"/>
<text text-anchor="middle" x="340.915" y="-229.8" font-family="Times,serif" font-size="14.00">src/Base/Natrans</text>
</g>
<!-- src/Base/Natrans&#45;&gt;src/Base/Category -->
<g id="edge9" class="edge"><title>src/Base/Natrans&#45;&gt;src/Base/Category</title>
<path fill="none" stroke="black" d="M339.655,-215.785C339.056,-196.965 340.433,-166.495 352.915,-144 359.322,-132.454 369.329,-122.389 379.543,-114.222"/>
<polygon fill="black" stroke="black" points="381.818,-116.89 387.713,-108.087 377.615,-111.292 381.818,-116.89"/>
</g>
<!-- src/Base/Natrans&#45;&gt;src/Base/Functor -->
<g id="edge10" class="edge"><title>src/Base/Natrans&#45;&gt;src/Base/Functor</title>
<path fill="none" stroke="black" d="M359.702,-215.697C369.089,-207.05 380.6,-196.449 390.829,-187.027"/>
<polygon fill="black" stroke="black" points="393.36,-189.454 398.345,-180.104 388.618,-184.305 393.36,-189.454"/>
</g>
<!-- src/Limit/Cone -->
<g id="node8" class="node"><title>src/Limit/Cone</title>
<polygon fill="none" stroke="black" points="802.181,-252 701.649,-252 701.649,-216 802.181,-216 802.181,-252"/>
<text text-anchor="middle" x="751.915" y="-229.8" font-family="Times,serif" font-size="14.00">src/Limit/Cone</text>
</g>
<!-- src/Limit/Cone&#45;&gt;src/Base/Category -->
<g id="edge11" class="edge"><title>src/Limit/Cone&#45;&gt;src/Base/Category</title>
<path fill="none" stroke="black" d="M712.896,-215.894C671.534,-197.819 604.255,-168.585 545.915,-144 520.52,-133.298 492.207,-121.636 468.59,-111.983"/>
<polygon fill="black" stroke="black" points="469.697,-108.654 459.116,-108.115 467.051,-115.135 469.697,-108.654"/>
</g>
<!-- src/Limit/Cone&#45;&gt;src/Base/Functor -->
<g id="edge12" class="edge"><title>src/Limit/Cone&#45;&gt;src/Base/Functor</title>
<path fill="none" stroke="black" d="M701.337,-219.233C696.808,-218.101 692.284,-217.006 687.915,-216 618.098,-199.919 537.44,-184.551 482.392,-174.544"/>
<polygon fill="black" stroke="black" points="482.883,-171.076 472.419,-172.739 481.636,-177.964 482.883,-171.076"/>
</g>
<!-- src/Limit/LimProd -->
<g id="node9" class="node"><title>src/Limit/LimProd</title>
<polygon fill="none" stroke="black" points="851.408,-324 730.422,-324 730.422,-288 851.408,-288 851.408,-324"/>
<text text-anchor="middle" x="790.915" y="-301.8" font-family="Times,serif" font-size="14.00">src/Limit/LimProd</text>
</g>
<!-- src/Limit/LimProd&#45;&gt;src/Base/Category -->
<g id="edge13" class="edge"><title>src/Limit/LimProd&#45;&gt;src/Base/Category</title>
<path fill="none" stroke="black" d="M802.264,-287.662C813.261,-268.456 826.211,-237.381 810.915,-216 772.831,-162.763 588.952,-121.925 486.404,-102.848"/>
<polygon fill="black" stroke="black" points="486.907,-99.3819 476.438,-101.015 485.64,-106.266 486.907,-99.3819"/>
</g>
<!-- src/Limit/LimProd&#45;&gt;src/Base/Functor -->
<g id="edge14" class="edge"><title>src/Limit/LimProd&#45;&gt;src/Base/Functor</title>
<path fill="none" stroke="black" d="M753.711,-287.786C734.797,-278.325 711.867,-265.733 692.915,-252 674.077,-238.349 675.456,-226.923 654.915,-216 625.502,-200.359 542.291,-183.916 482.553,-173.57"/>
<polygon fill="black" stroke="black" points="482.883,-170.076 472.436,-171.837 481.701,-176.975 482.883,-170.076"/>
</g>
<!-- src/Limit/LimProd&#45;&gt;src/Base/Discrete -->
<g id="edge16" class="edge"><title>src/Limit/LimProd&#45;&gt;src/Base/Discrete</title>
<path fill="none" stroke="black" d="M809.09,-287.814C819.565,-277.669 832.815,-264.419 843.915,-252 862.366,-231.357 881.883,-206.657 895.775,-188.522"/>
<polygon fill="black" stroke="black" points="898.843,-190.27 902.113,-180.192 893.272,-186.031 898.843,-190.27"/>
</g>
<!-- src/Limit/LimProd&#45;&gt;src/Limit/Cone -->
<g id="edge15" class="edge"><title>src/Limit/LimProd&#45;&gt;src/Limit/Cone</title>
<path fill="none" stroke="black" d="M781.275,-287.697C776.788,-279.644 771.356,-269.894 766.391,-260.982"/>
<polygon fill="black" stroke="black" points="769.369,-259.137 761.445,-252.104 763.254,-262.544 769.369,-259.137"/>
</g>
<!-- src/Monad/Kleisli -->
<g id="node10" class="node"><title>src/Monad/Kleisli</title>
<polygon fill="none" stroke="black" points="645.512,-252 528.318,-252 528.318,-216 645.512,-216 645.512,-252"/>
<text text-anchor="middle" x="586.915" y="-229.8" font-family="Times,serif" font-size="14.00">src/Monad/Kleisli</text>
</g>
<!-- src/Monad/Kleisli&#45;&gt;src/Base/Category -->
<g id="edge17" class="edge"><title>src/Monad/Kleisli&#45;&gt;src/Base/Category</title>
<path fill="none" stroke="black" d="M575.898,-215.93C562.848,-196.68 539.613,-165.294 513.915,-144 499.203,-131.809 481.263,-121.085 464.831,-112.529"/>
<polygon fill="black" stroke="black" points="466.39,-109.396 455.887,-108.004 463.23,-115.642 466.39,-109.396"/>
</g>
<!-- src/Monad/Kleisli&#45;&gt;src/Base/Functor -->
<g id="edge18" class="edge"><title>src/Monad/Kleisli&#45;&gt;src/Base/Functor</title>
<path fill="none" stroke="black" d="M545.329,-215.876C521.882,-206.222 492.411,-194.087 467.618,-183.878"/>
<polygon fill="black" stroke="black" points="468.946,-180.639 458.367,-180.068 466.281,-187.112 468.946,-180.639"/>
</g>
<!-- src/Monad/KTMonad -->
<g id="node11" class="node"><title>src/Monad/KTMonad</title>
<polygon fill="none" stroke="black" points="415.005,-396 276.825,-396 276.825,-360 415.005,-360 415.005,-396"/>
<text text-anchor="middle" x="345.915" y="-373.8" font-family="Times,serif" font-size="14.00">src/Monad/KTMonad</text>
</g>
<!-- src/Monad/KTMonad&#45;&gt;src/Base/Category -->
<g id="edge19" class="edge"><title>src/Monad/KTMonad&#45;&gt;src/Base/Category</title>
<path fill="none" stroke="black" d="M276.493,-376.428C187.106,-374.048 39.165,-363.984 4.91521,-324 -0.322949,-317.885 -3.00659,-251.792 5.91521,-216 14.6172,-181.09 13.6008,-164.859 42.9152,-144 90.5387,-110.113 253.173,-97.721 347.562,-93.3194"/>
<polygon fill="black" stroke="black" points="347.766,-96.8139 357.599,-92.8695 347.453,-89.8209 347.766,-96.8139"/>
</g>
<!-- src/Monad/KTMonad&#45;&gt;src/Base/Functor -->
<g id="edge20" class="edge"><title>src/Monad/KTMonad&#45;&gt;src/Base/Functor</title>
<path fill="none" stroke="black" d="M356.091,-359.874C369.543,-336.396 392.939,-292.502 404.915,-252 410.911,-231.723 413.922,-207.952 415.428,-190.08"/>
<polygon fill="black" stroke="black" points="418.922,-190.285 416.168,-180.054 411.941,-189.769 418.922,-190.285"/>
</g>
<!-- src/Monad/KTMonad&#45;&gt;src/Base/Natrans -->
<g id="edge21" class="edge"><title>src/Monad/KTMonad&#45;&gt;src/Base/Natrans</title>
<path fill="none" stroke="black" d="M345.312,-359.871C344.46,-335.67 342.894,-291.211 341.88,-262.393"/>
<polygon fill="black" stroke="black" points="345.37,-262.06 341.52,-252.189 338.375,-262.306 345.37,-262.06"/>
</g>
<!-- src/Monad/KTMonad&#45;&gt;src/Monad/Kleisli -->
<g id="edge23" class="edge"><title>src/Monad/KTMonad&#45;&gt;src/Monad/Kleisli</title>
<path fill="none" stroke="black" d="M415.122,-371.568C479.661,-364.894 569.157,-350.969 590.915,-324 604.746,-306.858 601.951,-281.247 596.748,-261.894"/>
<polygon fill="black" stroke="black" points="600.045,-260.704 593.792,-252.151 593.347,-262.736 600.045,-260.704"/>
</g>
<!-- src/Monad/Monad -->
<g id="node12" class="node"><title>src/Monad/Monad</title>
<polygon fill="none" stroke="black" points="317.844,-324 197.987,-324 197.987,-288 317.844,-288 317.844,-324"/>
<text text-anchor="middle" x="257.915" y="-301.8" font-family="Times,serif" font-size="14.00">src/Monad/Monad</text>
</g>
<!-- src/Monad/KTMonad&#45;&gt;src/Monad/Monad -->
<g id="edge22" class="edge"><title>src/Monad/KTMonad&#45;&gt;src/Monad/Monad</title>
<path fill="none" stroke="black" d="M324.162,-359.697C313.08,-350.881 299.441,-340.032 287.426,-330.474"/>
<polygon fill="black" stroke="black" points="289.423,-327.59 279.418,-324.104 285.065,-333.069 289.423,-327.59"/>
</g>
<!-- src/Monad/Monad&#45;&gt;src/Base/Category -->
<g id="edge24" class="edge"><title>src/Monad/Monad&#45;&gt;src/Base/Category</title>
<path fill="none" stroke="black" d="M253.598,-287.735C249.864,-269.142 246.534,-239.118 256.915,-216 278.572,-167.773 329.768,-133.151 368.46,-112.746"/>
<polygon fill="black" stroke="black" points="370.199,-115.788 377.503,-108.113 367.007,-109.558 370.199,-115.788"/>
</g>
<!-- src/Monad/Monad&#45;&gt;src/Base/Functor -->
<g id="edge25" class="edge"><title>src/Monad/Monad&#45;&gt;src/Base/Functor</title>
<path fill="none" stroke="black" d="M256.976,-287.818C256.843,-268.173 259.621,-236.136 276.915,-216 295.842,-193.963 324.929,-181.066 351.698,-173.528"/>
<polygon fill="black" stroke="black" points="352.64,-176.9 361.431,-170.987 350.872,-170.127 352.64,-176.9"/>
</g>
<!-- src/Monad/Monad&#45;&gt;src/Base/Natrans -->
<g id="edge26" class="edge"><title>src/Monad/Monad&#45;&gt;src/Base/Natrans</title>
<path fill="none" stroke="black" d="M278.432,-287.697C288.785,-278.965 301.501,-268.24 312.754,-258.75"/>
<polygon fill="black" stroke="black" points="315.246,-261.227 320.634,-252.104 310.734,-255.876 315.246,-261.227"/>
</g>
<!-- src/Yoneda/YonedaLemma -->
<g id="node13" class="node"><title>src/Yoneda/YonedaLemma</title>
<polygon fill="none" stroke="black" points="581.565,-324 414.266,-324 414.266,-288 581.565,-288 581.565,-324"/>
<text text-anchor="middle" x="497.915" y="-301.8" font-family="Times,serif" font-size="14.00">src/Yoneda/YonedaLemma</text>
</g>
<!-- src/Yoneda/YonedaLemma&#45;&gt;src/Base/Category -->
<g id="edge27" class="edge"><title>src/Yoneda/YonedaLemma&#45;&gt;src/Base/Category</title>
<path fill="none" stroke="black" d="M500.14,-287.799C503.291,-256.953 506.15,-191.064 480.915,-144 474.729,-132.463 464.888,-122.446 454.759,-114.32"/>
<polygon fill="black" stroke="black" points="456.735,-111.427 446.639,-108.217 452.529,-117.023 456.735,-111.427"/>
</g>
<!-- src/Yoneda/YonedaLemma&#45;&gt;src/Base/Functor -->
<g id="edge28" class="edge"><title>src/Yoneda/YonedaLemma&#45;&gt;src/Base/Functor</title>
<path fill="none" stroke="black" d="M488.145,-287.871C474.097,-263.244 448.082,-217.638 431.68,-188.885"/>
<polygon fill="black" stroke="black" points="434.715,-187.141 426.72,-180.189 428.635,-190.61 434.715,-187.141"/>
</g>
<!-- src/Yoneda/YonedaLemma&#45;&gt;src/Base/Natrans -->
<g id="edge29" class="edge"><title>src/Yoneda/YonedaLemma&#45;&gt;src/Base/Natrans</title>
<path fill="none" stroke="black" d="M459.509,-287.876C438.046,-278.307 411.117,-266.3 388.347,-256.148"/>
<polygon fill="black" stroke="black" points="389.756,-252.944 379.197,-252.068 386.905,-259.337 389.756,-252.944"/>
</g>
</g>
</svg>
