<?xml version="1.0" encoding="UTF-8" standalone="no"?>
<!DOCTYPE svg PUBLIC "-//W3C//DTD SVG 1.1//EN"
 "http://www.w3.org/Graphics/SVG/1.1/DTD/svg11.dtd">
<!-- Generated by graphviz version 2.38.0 (20140413.2041)
 -->
<!-- Title: deps Pages: 1 -->
<svg width="624pt" height="332pt"
 viewBox="0.00 0.00 623.64 332.00" xmlns="http://www.w3.org/2000/svg" xmlns:xlink="http://www.w3.org/1999/xlink">
<g id="graph0" class="graph" transform="scale(1 1) rotate(0) translate(4 328)">
<title>deps</title>
<polygon fill="white" stroke="none" points="-4,4 -4,-328 619.636,-328 619.636,4 -4,4"/>
<!-- src/Algebra/Algebra -->
<g id="node1" class="node"><title>src/Algebra/Algebra</title>
<polygon fill="none" stroke="black" points="145.127,-252 14.56,-252 14.56,-216 145.127,-216 145.127,-252"/>
<text text-anchor="middle" x="79.8435" y="-229.8" font-family="Times,serif" font-size="14.00">src/Algebra/Algebra</text>
</g>
<!-- src/Base/Category -->
<g id="node2" class="node"><title>src/Base/Category</title>
<polygon fill="none" stroke="black" points="442.979,-108 324.708,-108 324.708,-72 442.979,-72 442.979,-108"/>
<text text-anchor="middle" x="383.843" y="-85.8" font-family="Times,serif" font-size="14.00">src/Base/Category</text>
</g>
<!-- src/Algebra/Algebra&#45;&gt;src/Base/Category -->
<g id="edge1" class="edge"><title>src/Algebra/Algebra&#45;&gt;src/Base/Category</title>
<path fill="none" stroke="black" d="M95.2422,-215.988C114.352,-195.892 148.842,-162.821 184.843,-144 225.298,-122.851 274.901,-109.615 314.463,-101.658"/>
<polygon fill="black" stroke="black" points="315.145,-105.092 324.293,-99.7479 313.809,-98.2202 315.145,-105.092"/>
</g>
<!-- src/Base/Functor -->
<g id="node3" class="node"><title>src/Base/Functor</title>
<polygon fill="none" stroke="black" points="304.213,-180 193.474,-180 193.474,-144 304.213,-144 304.213,-180"/>
<text text-anchor="middle" x="248.843" y="-157.8" font-family="Times,serif" font-size="14.00">src/Base/Functor</text>
</g>
<!-- src/Algebra/Algebra&#45;&gt;src/Base/Functor -->
<g id="edge2" class="edge"><title>src/Algebra/Algebra&#45;&gt;src/Base/Functor</title>
<path fill="none" stroke="black" d="M121.186,-215.876C144.392,-206.264 173.534,-194.193 198.113,-184.013"/>
<polygon fill="black" stroke="black" points="199.736,-187.129 207.636,-180.068 197.057,-180.662 199.736,-187.129"/>
</g>
<!-- src/Base/Setoid -->
<g id="node5" class="node"><title>src/Base/Setoid</title>
<ellipse fill="none" stroke="black" cx="383.843" cy="-18" rx="65.2477" ry="18"/>
<text text-anchor="middle" x="383.843" y="-13.8" font-family="Times,serif" font-size="14.00">src/Base/Setoid</text>
</g>
<!-- src/Base/Category&#45;&gt;src/Base/Setoid -->
<g id="edge6" class="edge"><title>src/Base/Category&#45;&gt;src/Base/Setoid</title>
<path fill="none" stroke="black" d="M383.843,-71.6966C383.843,-63.9827 383.843,-54.7125 383.843,-46.1124"/>
<polygon fill="black" stroke="black" points="387.344,-46.1043 383.843,-36.1043 380.344,-46.1044 387.344,-46.1043"/>
</g>
<!-- src/Base/Functor&#45;&gt;src/Base/Category -->
<g id="edge8" class="edge"><title>src/Base/Functor&#45;&gt;src/Base/Category</title>
<path fill="none" stroke="black" d="M281.868,-143.876C299.928,-134.512 322.489,-122.814 341.795,-112.803"/>
<polygon fill="black" stroke="black" points="343.425,-115.9 350.692,-108.19 340.203,-109.686 343.425,-115.9"/>
</g>
<!-- src/Algebra/ListFunctor -->
<g id="node4" class="node"><title>src/Algebra/ListFunctor</title>
<polygon fill="none" stroke="black" points="154.869,-324 4.81831,-324 4.81831,-288 154.869,-288 154.869,-324"/>
<text text-anchor="middle" x="79.8435" y="-301.8" font-family="Times,serif" font-size="14.00">src/Algebra/ListFunctor</text>
</g>
<!-- src/Algebra/ListFunctor&#45;&gt;src/Algebra/Algebra -->
<g id="edge5" class="edge"><title>src/Algebra/ListFunctor&#45;&gt;src/Algebra/Algebra</title>
<path fill="none" stroke="black" d="M79.8435,-287.697C79.8435,-279.983 79.8435,-270.712 79.8435,-262.112"/>
<polygon fill="black" stroke="black" points="83.3436,-262.104 79.8435,-252.104 76.3436,-262.104 83.3436,-262.104"/>
</g>
<!-- src/Algebra/ListFunctor&#45;&gt;src/Base/Category -->
<g id="edge3" class="edge"><title>src/Algebra/ListFunctor&#45;&gt;src/Base/Category</title>
<path fill="none" stroke="black" d="M42.4524,-287.798C28.2993,-279.203 13.7154,-267.321 5.84347,-252 -1.46875,-237.769 -2.18736,-229.839 5.84347,-216 38.2168,-160.215 71.5534,-166.915 131.843,-144 191.493,-121.328 262.965,-107.462 314.534,-99.6301"/>
<polygon fill="black" stroke="black" points="315.193,-103.071 324.573,-98.1433 314.168,-96.1462 315.193,-103.071"/>
</g>
<!-- src/Algebra/ListFunctor&#45;&gt;src/Base/Functor -->
<g id="edge4" class="edge"><title>src/Algebra/ListFunctor&#45;&gt;src/Base/Functor</title>
<path fill="none" stroke="black" d="M105.459,-287.887C119.996,-277.874 138.329,-264.731 153.843,-252 178.914,-231.427 205.729,-205.954 224.454,-187.538"/>
<polygon fill="black" stroke="black" points="227.311,-189.635 231.956,-180.112 222.386,-184.66 227.311,-189.635"/>
</g>
<!-- src/Base/Discrete -->
<g id="node6" class="node"><title>src/Base/Discrete</title>
<polygon fill="none" stroke="black" points="594.802,-180 480.884,-180 480.884,-144 594.802,-144 594.802,-180"/>
<text text-anchor="middle" x="537.843" y="-157.8" font-family="Times,serif" font-size="14.00">src/Base/Discrete</text>
</g>
<!-- src/Base/Discrete&#45;&gt;src/Base/Category -->
<g id="edge7" class="edge"><title>src/Base/Discrete&#45;&gt;src/Base/Category</title>
<path fill="none" stroke="black" d="M500.171,-143.876C479.212,-134.349 452.938,-122.407 430.667,-112.283"/>
<polygon fill="black" stroke="black" points="431.946,-109.02 421.394,-108.068 429.049,-115.393 431.946,-109.02"/>
</g>
<!-- src/Base/Natrans -->
<g id="node7" class="node"><title>src/Base/Natrans</title>
<polygon fill="none" stroke="black" points="387.199,-252 276.488,-252 276.488,-216 387.199,-216 387.199,-252"/>
<text text-anchor="middle" x="331.843" y="-229.8" font-family="Times,serif" font-size="14.00">src/Base/Natrans</text>
</g>
<!-- src/Base/Natrans&#45;&gt;src/Base/Category -->
<g id="edge9" class="edge"><title>src/Base/Natrans&#45;&gt;src/Base/Category</title>
<path fill="none" stroke="black" d="M338.116,-215.871C347.056,-191.457 363.547,-146.426 374.09,-117.635"/>
<polygon fill="black" stroke="black" points="377.397,-118.783 377.549,-108.189 370.824,-116.376 377.397,-118.783"/>
</g>
<!-- src/Base/Natrans&#45;&gt;src/Base/Functor -->
<g id="edge10" class="edge"><title>src/Base/Natrans&#45;&gt;src/Base/Functor</title>
<path fill="none" stroke="black" d="M311.327,-215.697C300.974,-206.965 288.257,-196.24 277.005,-186.75"/>
<polygon fill="black" stroke="black" points="279.025,-183.876 269.124,-180.104 274.512,-189.227 279.025,-183.876"/>
</g>
<!-- src/Limit/Cone -->
<g id="node8" class="node"><title>src/Limit/Cone</title>
<polygon fill="none" stroke="black" points="543.109,-252 442.578,-252 442.578,-216 543.109,-216 543.109,-252"/>
<text text-anchor="middle" x="492.843" y="-229.8" font-family="Times,serif" font-size="14.00">src/Limit/Cone</text>
</g>
<!-- src/Limit/Cone&#45;&gt;src/Base/Category -->
<g id="edge11" class="edge"><title>src/Limit/Cone&#45;&gt;src/Base/Category</title>
<path fill="none" stroke="black" d="M481.207,-215.972C468.674,-197.836 447.954,-168.436 428.843,-144 421.556,-134.682 413.254,-124.731 405.781,-115.997"/>
<polygon fill="black" stroke="black" points="408.387,-113.659 399.205,-108.372 403.086,-118.231 408.387,-113.659"/>
</g>
<!-- src/Limit/Cone&#45;&gt;src/Base/Functor -->
<g id="edge12" class="edge"><title>src/Limit/Cone&#45;&gt;src/Base/Functor</title>
<path fill="none" stroke="black" d="M442.287,-218.496C405.147,-207.841 354.37,-193.274 314.158,-181.738"/>
<polygon fill="black" stroke="black" points="315.017,-178.343 304.44,-178.95 313.087,-185.072 315.017,-178.343"/>
</g>
<!-- src/Limit/LimProd -->
<g id="node9" class="node"><title>src/Limit/LimProd</title>
<polygon fill="none" stroke="black" points="592.337,-324 471.35,-324 471.35,-288 592.337,-288 592.337,-324"/>
<text text-anchor="middle" x="531.843" y="-301.8" font-family="Times,serif" font-size="14.00">src/Limit/LimProd</text>
</g>
<!-- src/Limit/LimProd&#45;&gt;src/Base/Category -->
<g id="edge13" class="edge"><title>src/Limit/LimProd&#45;&gt;src/Base/Category</title>
<path fill="none" stroke="black" d="M550.66,-287.773C582.443,-256.601 639.937,-189.821 603.843,-144 585.267,-120.417 510.468,-106.103 453.193,-98.3957"/>
<polygon fill="black" stroke="black" points="453.45,-94.8998 443.081,-97.0783 452.545,-101.841 453.45,-94.8998"/>
</g>
<!-- src/Limit/LimProd&#45;&gt;src/Base/Functor -->
<g id="edge14" class="edge"><title>src/Limit/LimProd&#45;&gt;src/Base/Functor</title>
<path fill="none" stroke="black" d="M471.14,-294.541C395.47,-281.252 275.108,-259.176 267.843,-252 251.816,-236.167 247.749,-210.359 247.29,-190.601"/>
<polygon fill="black" stroke="black" points="250.791,-190.37 247.354,-180.349 243.792,-190.327 250.791,-190.37"/>
</g>
<!-- src/Limit/LimProd&#45;&gt;src/Base/Discrete -->
<g id="edge16" class="edge"><title>src/Limit/LimProd&#45;&gt;src/Base/Discrete</title>
<path fill="none" stroke="black" d="M540.149,-287.788C544.585,-277.634 549.585,-264.384 551.843,-252 555.644,-231.162 551.506,-207.465 546.765,-189.765"/>
<polygon fill="black" stroke="black" points="550.109,-188.731 543.959,-180.104 543.387,-190.683 550.109,-188.731"/>
</g>
<!-- src/Limit/LimProd&#45;&gt;src/Limit/Cone -->
<g id="edge15" class="edge"><title>src/Limit/LimProd&#45;&gt;src/Limit/Cone</title>
<path fill="none" stroke="black" d="M522.203,-287.697C517.716,-279.644 512.285,-269.894 507.319,-260.982"/>
<polygon fill="black" stroke="black" points="510.298,-259.137 502.373,-252.104 504.183,-262.544 510.298,-259.137"/>
</g>
<!-- src/Yoneda/YonedaLemma -->
<g id="node10" class="node"><title>src/Yoneda/YonedaLemma</title>
<polygon fill="none" stroke="black" points="415.493,-324 248.194,-324 248.194,-288 415.493,-288 415.493,-324"/>
<text text-anchor="middle" x="331.843" y="-301.8" font-family="Times,serif" font-size="14.00">src/Yoneda/YonedaLemma</text>
</g>
<!-- src/Yoneda/YonedaLemma&#45;&gt;src/Base/Category -->
<g id="edge17" class="edge"><title>src/Yoneda/YonedaLemma&#45;&gt;src/Base/Category</title>
<path fill="none" stroke="black" d="M362.613,-287.907C375.388,-279.021 388.845,-266.883 395.843,-252 416.185,-208.743 404.099,-151.668 393.763,-118.384"/>
<polygon fill="black" stroke="black" points="396.951,-116.874 390.512,-108.461 390.299,-119.053 396.951,-116.874"/>
</g>
<!-- src/Yoneda/YonedaLemma&#45;&gt;src/Base/Functor -->
<g id="edge18" class="edge"><title>src/Yoneda/YonedaLemma&#45;&gt;src/Base/Functor</title>
<path fill="none" stroke="black" d="M277.824,-287.962C261.069,-279.851 244.487,-268.258 234.843,-252 223.683,-233.184 228.896,-208.363 235.923,-189.714"/>
<polygon fill="black" stroke="black" points="239.217,-190.907 239.803,-180.328 232.748,-188.233 239.217,-190.907"/>
</g>
<!-- src/Yoneda/YonedaLemma&#45;&gt;src/Base/Natrans -->
<g id="edge19" class="edge"><title>src/Yoneda/YonedaLemma&#45;&gt;src/Base/Natrans</title>
<path fill="none" stroke="black" d="M331.843,-287.697C331.843,-279.983 331.843,-270.712 331.843,-262.112"/>
<polygon fill="black" stroke="black" points="335.344,-262.104 331.843,-252.104 328.344,-262.104 335.344,-262.104"/>
</g>
</g>
</svg>
