<?xml version="1.0" encoding="UTF-8" standalone="no"?>
<!DOCTYPE svg PUBLIC "-//W3C//DTD SVG 1.1//EN"
 "http://www.w3.org/Graphics/SVG/1.1/DTD/svg11.dtd">
<!-- Generated by graphviz version 2.38.0 (20140413.2041)
 -->
<!-- Title: deps Pages: 1 -->
<svg width="1213pt" height="404pt"
 viewBox="0.00 0.00 1213.32 404.00" xmlns="http://www.w3.org/2000/svg" xmlns:xlink="http://www.w3.org/1999/xlink">
<g id="graph0" class="graph" transform="scale(1 1) rotate(0) translate(4 400)">
<title>deps</title>
<polygon fill="white" stroke="none" points="-4,4 -4,-400 1209.32,-400 1209.32,4 -4,4"/>
<!-- src/Algebra/Algebra -->
<g id="node1" class="node"><title>src/Algebra/Algebra</title>
<polygon fill="none" stroke="black" points="175.265,-252 44.6985,-252 44.6985,-216 175.265,-216 175.265,-252"/>
<text text-anchor="middle" x="109.982" y="-229.8" font-family="Times,serif" font-size="14.00">src/Algebra/Algebra</text>
</g>
<!-- src/Base/Category -->
<g id="node2" class="node"><title>src/Base/Category</title>
<polygon fill="none" stroke="black" points="773.117,-108 654.847,-108 654.847,-72 773.117,-72 773.117,-108"/>
<text text-anchor="middle" x="713.982" y="-85.8" font-family="Times,serif" font-size="14.00">src/Base/Category</text>
</g>
<!-- src/Algebra/Algebra&#45;&gt;src/Base/Category -->
<g id="edge1" class="edge"><title>src/Algebra/Algebra&#45;&gt;src/Base/Category</title>
<path fill="none" stroke="black" d="M139.797,-215.859C176.975,-195.312 243.073,-161.471 303.982,-144 420.71,-110.518 562.233,-98.1429 644.79,-93.5999"/>
<polygon fill="black" stroke="black" points="645.005,-97.0935 654.807,-93.0714 644.636,-90.1033 645.005,-97.0935"/>
</g>
<!-- src/Base/Functor -->
<g id="node3" class="node"><title>src/Base/Functor</title>
<polygon fill="none" stroke="black" points="629.351,-180 518.613,-180 518.613,-144 629.351,-144 629.351,-180"/>
<text text-anchor="middle" x="573.982" y="-157.8" font-family="Times,serif" font-size="14.00">src/Base/Functor</text>
</g>
<!-- src/Algebra/Algebra&#45;&gt;src/Base/Functor -->
<g id="edge2" class="edge"><title>src/Algebra/Algebra&#45;&gt;src/Base/Functor</title>
<path fill="none" stroke="black" d="M175.285,-217.66C178.22,-217.077 181.129,-216.52 183.982,-216 297.369,-195.315 430.651,-178.879 508.385,-170.073"/>
<polygon fill="black" stroke="black" points="508.966,-173.53 518.512,-168.933 508.183,-166.574 508.966,-173.53"/>
</g>
<!-- src/Base/Setoid -->
<g id="node5" class="node"><title>src/Base/Setoid</title>
<ellipse fill="none" stroke="black" cx="713.982" cy="-18" rx="65.2477" ry="18"/>
<text text-anchor="middle" x="713.982" y="-13.8" font-family="Times,serif" font-size="14.00">src/Base/Setoid</text>
</g>
<!-- src/Base/Category&#45;&gt;src/Base/Setoid -->
<g id="edge6" class="edge"><title>src/Base/Category&#45;&gt;src/Base/Setoid</title>
<path fill="none" stroke="black" d="M713.982,-71.6966C713.982,-63.9827 713.982,-54.7125 713.982,-46.1124"/>
<polygon fill="black" stroke="black" points="717.482,-46.1043 713.982,-36.1043 710.482,-46.1044 717.482,-46.1043"/>
</g>
<!-- src/Base/Functor&#45;&gt;src/Base/Category -->
<g id="edge8" class="edge"><title>src/Base/Functor&#45;&gt;src/Base/Category</title>
<path fill="none" stroke="black" d="M608.23,-143.876C627.043,-134.469 650.567,-122.708 670.648,-112.667"/>
<polygon fill="black" stroke="black" points="672.223,-115.792 679.602,-108.19 669.093,-109.531 672.223,-115.792"/>
</g>
<!-- src/Algebra/ListFunctor -->
<g id="node4" class="node"><title>src/Algebra/ListFunctor</title>
<polygon fill="none" stroke="black" points="185.007,-324 34.9568,-324 34.9568,-288 185.007,-288 185.007,-324"/>
<text text-anchor="middle" x="109.982" y="-301.8" font-family="Times,serif" font-size="14.00">src/Algebra/ListFunctor</text>
</g>
<!-- src/Algebra/ListFunctor&#45;&gt;src/Algebra/Algebra -->
<g id="edge5" class="edge"><title>src/Algebra/ListFunctor&#45;&gt;src/Algebra/Algebra</title>
<path fill="none" stroke="black" d="M109.982,-287.697C109.982,-279.983 109.982,-270.712 109.982,-262.112"/>
<polygon fill="black" stroke="black" points="113.482,-262.104 109.982,-252.104 106.482,-262.104 113.482,-262.104"/>
</g>
<!-- src/Algebra/ListFunctor&#45;&gt;src/Base/Category -->
<g id="edge3" class="edge"><title>src/Algebra/ListFunctor&#45;&gt;src/Base/Category</title>
<path fill="none" stroke="black" d="M72.5909,-287.798C58.4378,-279.203 43.8539,-267.321 35.982,-252 28.6698,-237.769 27.1178,-229.32 35.982,-216 102.856,-115.51 485.222,-95.7738 644.43,-91.9224"/>
<polygon fill="black" stroke="black" points="644.67,-95.4179 654.588,-91.691 644.511,-88.4197 644.67,-95.4179"/>
</g>
<!-- src/Algebra/ListFunctor&#45;&gt;src/Base/Functor -->
<g id="edge4" class="edge"><title>src/Algebra/ListFunctor&#45;&gt;src/Base/Functor</title>
<path fill="none" stroke="black" d="M185.243,-289.293C225.674,-280.035 276.091,-267.167 319.982,-252 357.217,-239.133 364.081,-229.795 400.982,-216 436.047,-202.891 475.955,-190.502 508.599,-181.003"/>
<polygon fill="black" stroke="black" points="509.846,-184.286 518.483,-178.15 507.904,-177.56 509.846,-184.286"/>
</g>
<!-- src/Base/Discrete -->
<g id="node6" class="node"><title>src/Base/Discrete</title>
<polygon fill="none" stroke="black" points="1167.94,-180 1054.02,-180 1054.02,-144 1167.94,-144 1167.94,-180"/>
<text text-anchor="middle" x="1110.98" y="-157.8" font-family="Times,serif" font-size="14.00">src/Base/Discrete</text>
</g>
<!-- src/Base/Discrete&#45;&gt;src/Base/Category -->
<g id="edge7" class="edge"><title>src/Base/Discrete&#45;&gt;src/Base/Category</title>
<path fill="none" stroke="black" d="M1053.71,-146.904C1049.08,-145.88 1044.46,-144.898 1039.98,-144 951.884,-126.317 849.487,-110.423 783.308,-100.754"/>
<polygon fill="black" stroke="black" points="783.809,-97.2902 773.409,-99.3148 782.802,-104.217 783.809,-97.2902"/>
</g>
<!-- src/Base/Natrans -->
<g id="node7" class="node"><title>src/Base/Natrans</title>
<polygon fill="none" stroke="black" points="629.338,-252 518.626,-252 518.626,-216 629.338,-216 629.338,-252"/>
<text text-anchor="middle" x="573.982" y="-229.8" font-family="Times,serif" font-size="14.00">src/Base/Natrans</text>
</g>
<!-- src/Base/Natrans&#45;&gt;src/Base/Category -->
<g id="edge9" class="edge"><title>src/Base/Natrans&#45;&gt;src/Base/Category</title>
<path fill="none" stroke="black" d="M596.414,-215.983C609.076,-206.001 624.929,-192.857 637.982,-180 658.569,-159.722 679.738,-134.507 694.488,-116.098"/>
<polygon fill="black" stroke="black" points="697.312,-118.17 700.789,-108.162 691.83,-113.818 697.312,-118.17"/>
</g>
<!-- src/Base/Natrans&#45;&gt;src/Base/Functor -->
<g id="edge10" class="edge"><title>src/Base/Natrans&#45;&gt;src/Base/Functor</title>
<path fill="none" stroke="black" d="M573.982,-215.697C573.982,-207.983 573.982,-198.712 573.982,-190.112"/>
<polygon fill="black" stroke="black" points="577.482,-190.104 573.982,-180.104 570.482,-190.104 577.482,-190.104"/>
</g>
<!-- src/Limit/Cone -->
<g id="node8" class="node"><title>src/Limit/Cone</title>
<polygon fill="none" stroke="black" points="1045.25,-252 944.716,-252 944.716,-216 1045.25,-216 1045.25,-252"/>
<text text-anchor="middle" x="994.982" y="-229.8" font-family="Times,serif" font-size="14.00">src/Limit/Cone</text>
</g>
<!-- src/Limit/Cone&#45;&gt;src/Base/Category -->
<g id="edge11" class="edge"><title>src/Limit/Cone&#45;&gt;src/Base/Category</title>
<path fill="none" stroke="black" d="M979.707,-215.779C961.091,-195.792 927.787,-163.134 892.982,-144 858.99,-125.313 817.657,-112.514 783.277,-104.183"/>
<polygon fill="black" stroke="black" points="783.847,-100.722 773.312,-101.845 782.248,-107.537 783.847,-100.722"/>
</g>
<!-- src/Limit/Cone&#45;&gt;src/Base/Functor -->
<g id="edge12" class="edge"><title>src/Limit/Cone&#45;&gt;src/Base/Functor</title>
<path fill="none" stroke="black" d="M944.451,-219.017C939.912,-217.931 935.373,-216.906 930.982,-216 830.089,-195.179 711.538,-179.241 639.626,-170.502"/>
<polygon fill="black" stroke="black" points="639.709,-166.987 629.362,-169.265 638.871,-173.937 639.709,-166.987"/>
</g>
<!-- src/Limit/LimProd -->
<g id="node9" class="node"><title>src/Limit/LimProd</title>
<polygon fill="none" stroke="black" points="1133.48,-324 1012.49,-324 1012.49,-288 1133.48,-288 1133.48,-324"/>
<text text-anchor="middle" x="1072.98" y="-301.8" font-family="Times,serif" font-size="14.00">src/Limit/LimProd</text>
</g>
<!-- src/Limit/LimProd&#45;&gt;src/Base/Category -->
<g id="edge13" class="edge"><title>src/Limit/LimProd&#45;&gt;src/Base/Category</title>
<path fill="none" stroke="black" d="M1073.28,-287.973C1072.79,-268.763 1069.4,-237.413 1053.98,-216 991.787,-129.61 863.204,-102.814 783.209,-94.5732"/>
<polygon fill="black" stroke="black" points="783.51,-91.086 773.221,-93.6145 782.841,-98.054 783.51,-91.086"/>
</g>
<!-- src/Limit/LimProd&#45;&gt;src/Base/Functor -->
<g id="edge14" class="edge"><title>src/Limit/LimProd&#45;&gt;src/Base/Functor</title>
<path fill="none" stroke="black" d="M1027.09,-287.891C1000.38,-277.771 966.128,-264.521 935.982,-252 899.6,-236.888 892.591,-227.73 854.982,-216 782.889,-193.515 697.256,-179.038 639.63,-170.992"/>
<polygon fill="black" stroke="black" points="639.944,-167.502 629.561,-169.611 638.993,-174.437 639.944,-167.502"/>
</g>
<!-- src/Limit/LimProd&#45;&gt;src/Base/Discrete -->
<g id="edge16" class="edge"><title>src/Limit/LimProd&#45;&gt;src/Base/Discrete</title>
<path fill="none" stroke="black" d="M1077.57,-287.871C1084.07,-263.564 1096.04,-218.819 1103.75,-190.013"/>
<polygon fill="black" stroke="black" points="1107.18,-190.754 1106.38,-180.189 1100.42,-188.945 1107.18,-190.754"/>
</g>
<!-- src/Limit/LimProd&#45;&gt;src/Limit/Cone -->
<g id="edge15" class="edge"><title>src/Limit/LimProd&#45;&gt;src/Limit/Cone</title>
<path fill="none" stroke="black" d="M1053.7,-287.697C1044.07,-279.05 1032.25,-268.449 1021.75,-259.027"/>
<polygon fill="black" stroke="black" points="1023.82,-256.179 1014.04,-252.104 1019.15,-261.388 1023.82,-256.179"/>
</g>
<!-- src/Monad/Kleisli -->
<g id="node10" class="node"><title>src/Monad/Kleisli</title>
<polygon fill="none" stroke="black" points="310.579,-252 193.385,-252 193.385,-216 310.579,-216 310.579,-252"/>
<text text-anchor="middle" x="251.982" y="-229.8" font-family="Times,serif" font-size="14.00">src/Monad/Kleisli</text>
</g>
<!-- src/Monad/Kleisli&#45;&gt;src/Base/Category -->
<g id="edge17" class="edge"><title>src/Monad/Kleisli&#45;&gt;src/Base/Category</title>
<path fill="none" stroke="black" d="M267.771,-215.685C287.764,-194.964 324.293,-160.947 362.982,-144 454.771,-103.794 571.563,-93.2808 644.565,-90.9613"/>
<polygon fill="black" stroke="black" points="644.669,-94.4599 654.568,-90.6861 644.476,-87.4625 644.669,-94.4599"/>
</g>
<!-- src/Monad/Kleisli&#45;&gt;src/Base/Functor -->
<g id="edge18" class="edge"><title>src/Monad/Kleisli&#45;&gt;src/Base/Functor</title>
<path fill="none" stroke="black" d="M310.53,-219.262C315.417,-218.147 320.283,-217.047 324.982,-216 387.135,-202.15 458.196,-187.102 508.453,-176.592"/>
<polygon fill="black" stroke="black" points="509.461,-179.957 518.534,-174.486 508.029,-173.105 509.461,-179.957"/>
</g>
<!-- src/Monad/KTMonad -->
<g id="node11" class="node"><title>src/Monad/KTMonad</title>
<polygon fill="none" stroke="black" points="346.072,-396 207.892,-396 207.892,-360 346.072,-360 346.072,-396"/>
<text text-anchor="middle" x="276.982" y="-373.8" font-family="Times,serif" font-size="14.00">src/Monad/KTMonad</text>
</g>
<!-- src/Monad/KTMonad&#45;&gt;src/Base/Category -->
<g id="edge19" class="edge"><title>src/Monad/KTMonad&#45;&gt;src/Base/Category</title>
<path fill="none" stroke="black" d="M207.651,-371.966C141.438,-365.545 48.4932,-351.761 25.982,-324 -26.6239,-259.126 6.89936,-184.434 79.982,-144 128.431,-117.195 489.951,-99.8648 644.378,-93.6121"/>
<polygon fill="black" stroke="black" points="644.837,-97.0966 654.689,-93.1987 644.557,-90.1022 644.837,-97.0966"/>
</g>
<!-- src/Monad/KTMonad&#45;&gt;src/Base/Functor -->
<g id="edge20" class="edge"><title>src/Monad/KTMonad&#45;&gt;src/Base/Functor</title>
<path fill="none" stroke="black" d="M276.283,-359.667C276.407,-340.177 279.457,-308.57 295.982,-288 320.147,-257.919 341.266,-270.762 374.982,-252 400.187,-237.974 403.255,-229.043 428.982,-216 454.207,-203.211 483.273,-191.961 508.727,-183.153"/>
<polygon fill="black" stroke="black" points="509.95,-186.434 518.29,-179.899 507.695,-179.807 509.95,-186.434"/>
</g>
<!-- src/Monad/KTMonad&#45;&gt;src/Base/Natrans -->
<g id="edge21" class="edge"><title>src/Monad/KTMonad&#45;&gt;src/Base/Natrans</title>
<path fill="none" stroke="black" d="M338.718,-359.931C368.211,-350.835 403.615,-338.517 433.982,-324 473.139,-305.282 514.707,-277.762 542.279,-258.288"/>
<polygon fill="black" stroke="black" points="544.609,-260.926 550.719,-252.27 540.545,-255.226 544.609,-260.926"/>
</g>
<!-- src/Monad/KTMonad&#45;&gt;src/Monad/Kleisli -->
<g id="edge23" class="edge"><title>src/Monad/KTMonad&#45;&gt;src/Monad/Kleisli</title>
<path fill="none" stroke="black" d="M271.85,-359.95C268.9,-349.625 265.326,-336.148 262.982,-324 259.025,-303.492 256.194,-280.036 254.396,-262.355"/>
<polygon fill="black" stroke="black" points="257.858,-261.785 253.409,-252.17 250.89,-262.461 257.858,-261.785"/>
</g>
<!-- src/Monad/Monad -->
<g id="node12" class="node"><title>src/Monad/Monad</title>
<polygon fill="none" stroke="black" points="424.91,-324 305.053,-324 305.053,-288 424.91,-288 424.91,-324"/>
<text text-anchor="middle" x="364.982" y="-301.8" font-family="Times,serif" font-size="14.00">src/Monad/Monad</text>
</g>
<!-- src/Monad/KTMonad&#45;&gt;src/Monad/Monad -->
<g id="edge22" class="edge"><title>src/Monad/KTMonad&#45;&gt;src/Monad/Monad</title>
<path fill="none" stroke="black" d="M298.735,-359.697C309.818,-350.881 323.456,-340.032 335.472,-330.474"/>
<polygon fill="black" stroke="black" points="337.832,-333.069 343.479,-324.104 333.475,-327.59 337.832,-333.069"/>
</g>
<!-- src/Monad/Monad&#45;&gt;src/Base/Category -->
<g id="edge24" class="edge"><title>src/Monad/Monad&#45;&gt;src/Base/Category</title>
<path fill="none" stroke="black" d="M374.735,-287.817C395.014,-253.879 445.275,-178.548 509.982,-144 551.88,-121.63 603.734,-108.319 644.678,-100.632"/>
<polygon fill="black" stroke="black" points="645.354,-104.067 654.571,-98.8433 644.108,-97.1784 645.354,-104.067"/>
</g>
<!-- src/Monad/Monad&#45;&gt;src/Base/Functor -->
<g id="edge25" class="edge"><title>src/Monad/Monad&#45;&gt;src/Base/Functor</title>
<path fill="none" stroke="black" d="M385.623,-287.898C412.662,-265.618 458.77,-228.083 476.982,-216 493.847,-204.811 513.28,-193.845 530.302,-184.818"/>
<polygon fill="black" stroke="black" points="532.244,-187.753 539.48,-180.014 528.997,-181.551 532.244,-187.753"/>
</g>
<!-- src/Monad/Monad&#45;&gt;src/Base/Natrans -->
<g id="edge26" class="edge"><title>src/Monad/Monad&#45;&gt;src/Base/Natrans</title>
<path fill="none" stroke="black" d="M415.842,-287.966C445.171,-278.142 482.234,-265.729 513.106,-255.389"/>
<polygon fill="black" stroke="black" points="514.523,-258.606 522.894,-252.111 512.3,-251.968 514.523,-258.606"/>
</g>
<!-- src/Monoid/Enriched -->
<g id="node13" class="node"><title>src/Monoid/Enriched</title>
<polygon fill="none" stroke="black" points="965.455,-396 830.509,-396 830.509,-360 965.455,-360 965.455,-396"/>
<text text-anchor="middle" x="897.982" y="-373.8" font-family="Times,serif" font-size="14.00">src/Monoid/Enriched</text>
</g>
<!-- src/Monoid/Enriched&#45;&gt;src/Base/Category -->
<g id="edge27" class="edge"><title>src/Monoid/Enriched&#45;&gt;src/Base/Category</title>
<path fill="none" stroke="black" d="M965.606,-370.341C1028.89,-362.73 1117.28,-348.106 1141.98,-324 1200.31,-267.083 1231.23,-204.817 1176.98,-144 1151.28,-115.188 906.489,-99.876 783.621,-93.9505"/>
<polygon fill="black" stroke="black" points="783.71,-90.4508 773.556,-93.4729 783.379,-97.443 783.71,-90.4508"/>
</g>
<!-- src/Monoid/Enriched&#45;&gt;src/Base/Functor -->
<g id="edge28" class="edge"><title>src/Monoid/Enriched&#45;&gt;src/Base/Functor</title>
<path fill="none" stroke="black" d="M912.282,-359.936C926.336,-340.975 943.581,-310.12 927.982,-288 919.246,-275.612 736.225,-215.205 636.865,-183.121"/>
<polygon fill="black" stroke="black" points="637.818,-179.751 627.227,-180.013 635.67,-186.413 637.818,-179.751"/>
</g>
<!-- src/Monoid/Enriched&#45;&gt;src/Base/Natrans -->
<g id="edge29" class="edge"><title>src/Monoid/Enriched&#45;&gt;src/Base/Natrans</title>
<path fill="none" stroke="black" d="M830.212,-374.62C748.748,-370.259 618.864,-358.028 585.982,-324 570.533,-308.013 568.571,-282.223 569.865,-262.51"/>
<polygon fill="black" stroke="black" points="573.375,-262.576 570.854,-252.285 566.407,-261.902 573.375,-262.576"/>
</g>
<!-- src/Monoid/Monoidal -->
<g id="node14" class="node"><title>src/Monoid/Monoidal</title>
<polygon fill="none" stroke="black" points="919.365,-324 780.599,-324 780.599,-288 919.365,-288 919.365,-324"/>
<text text-anchor="middle" x="849.982" y="-301.8" font-family="Times,serif" font-size="14.00">src/Monoid/Monoidal</text>
</g>
<!-- src/Monoid/Enriched&#45;&gt;src/Monoid/Monoidal -->
<g id="edge30" class="edge"><title>src/Monoid/Enriched&#45;&gt;src/Monoid/Monoidal</title>
<path fill="none" stroke="black" d="M886.117,-359.697C880.479,-351.474 873.628,-341.483 867.413,-332.421"/>
<polygon fill="black" stroke="black" points="870.253,-330.372 861.711,-324.104 864.479,-334.331 870.253,-330.372"/>
</g>
<!-- src/Monoid/Monoidal&#45;&gt;src/Base/Category -->
<g id="edge31" class="edge"><title>src/Monoid/Monoidal&#45;&gt;src/Base/Category</title>
<path fill="none" stroke="black" d="M839.082,-287.849C815.259,-250.362 758.436,-160.949 730.316,-116.702"/>
<polygon fill="black" stroke="black" points="733.251,-114.795 724.933,-108.232 727.343,-118.55 733.251,-114.795"/>
</g>
<!-- src/Monoid/Monoidal&#45;&gt;src/Base/Functor -->
<g id="edge32" class="edge"><title>src/Monoid/Monoidal&#45;&gt;src/Base/Functor</title>
<path fill="none" stroke="black" d="M816.69,-287.871C766.543,-262.071 671.644,-213.247 616.54,-184.896"/>
<polygon fill="black" stroke="black" points="617.885,-181.652 607.392,-180.189 614.683,-187.877 617.885,-181.652"/>
</g>
<!-- src/Monoid/Monoidal&#45;&gt;src/Base/Natrans -->
<g id="edge33" class="edge"><title>src/Monoid/Monoidal&#45;&gt;src/Base/Natrans</title>
<path fill="none" stroke="black" d="M782.818,-287.966C739.148,-276.89 682.494,-262.521 639.215,-251.545"/>
<polygon fill="black" stroke="black" points="639.911,-248.11 629.357,-249.044 638.19,-254.895 639.911,-248.11"/>
</g>
<!-- src/Monoid/MonoidObj -->
<g id="node15" class="node"><title>src/Monoid/MonoidObj</title>
<polygon fill="none" stroke="black" points="603.761,-396 454.203,-396 454.203,-360 603.761,-360 603.761,-396"/>
<text text-anchor="middle" x="528.982" y="-373.8" font-family="Times,serif" font-size="14.00">src/Monoid/MonoidObj</text>
</g>
<!-- src/Monoid/MonoidObj&#45;&gt;src/Base/Category -->
<g id="edge34" class="edge"><title>src/Monoid/MonoidObj&#45;&gt;src/Base/Category</title>
<path fill="none" stroke="black" d="M604.022,-372.301C713.673,-364.661 907.003,-347.95 927.982,-324 963.989,-282.894 814.721,-164.913 746.452,-114.404"/>
<polygon fill="black" stroke="black" points="748.287,-111.409 738.158,-108.305 744.14,-117.049 748.287,-111.409"/>
</g>
<!-- src/Monoid/MonoidObj&#45;&gt;src/Base/Functor -->
<g id="edge35" class="edge"><title>src/Monoid/MonoidObj&#45;&gt;src/Base/Functor</title>
<path fill="none" stroke="black" d="M521.107,-359.58C508.489,-328.952 487.345,-264.138 509.982,-216 515.504,-204.257 525.048,-194.222 535.105,-186.146"/>
<polygon fill="black" stroke="black" points="537.293,-188.88 543.213,-180.093 533.106,-183.27 537.293,-188.88"/>
</g>
<!-- src/Monoid/MonoidObj&#45;&gt;src/Base/Natrans -->
<g id="edge36" class="edge"><title>src/Monoid/MonoidObj&#45;&gt;src/Base/Natrans</title>
<path fill="none" stroke="black" d="M533.011,-359.766C537.376,-341.711 544.819,-312.607 552.982,-288 555.894,-279.223 559.478,-269.792 562.855,-261.354"/>
<polygon fill="black" stroke="black" points="566.133,-262.585 566.672,-252.004 559.652,-259.939 566.133,-262.585"/>
</g>
<!-- src/Monoid/MonoidObj&#45;&gt;src/Monad/Monad -->
<g id="edge38" class="edge"><title>src/Monoid/MonoidObj&#45;&gt;src/Monad/Monad</title>
<path fill="none" stroke="black" d="M488.863,-359.876C466.344,-350.264 438.064,-338.193 414.211,-328.013"/>
<polygon fill="black" stroke="black" points="415.542,-324.775 404.971,-324.068 412.794,-331.213 415.542,-324.775"/>
</g>
<!-- src/Monoid/MonoidObj&#45;&gt;src/Monoid/Monoidal -->
<g id="edge37" class="edge"><title>src/Monoid/MonoidObj&#45;&gt;src/Monoid/Monoidal</title>
<path fill="none" stroke="black" d="M603.837,-360.676C653.857,-349.769 719.573,-335.438 770.519,-324.328"/>
<polygon fill="black" stroke="black" points="771.478,-327.702 780.503,-322.151 769.987,-320.862 771.478,-327.702"/>
</g>
<!-- src/Yoneda/YonedaLemma -->
<g id="node16" class="node"><title>src/Yoneda/YonedaLemma</title>
<polygon fill="none" stroke="black" points="762.631,-324 595.332,-324 595.332,-288 762.631,-288 762.631,-324"/>
<text text-anchor="middle" x="678.982" y="-301.8" font-family="Times,serif" font-size="14.00">src/Yoneda/YonedaLemma</text>
</g>
<!-- src/Yoneda/YonedaLemma&#45;&gt;src/Base/Category -->
<g id="edge39" class="edge"><title>src/Yoneda/YonedaLemma&#45;&gt;src/Base/Category</title>
<path fill="none" stroke="black" d="M681.787,-287.849C687.854,-250.753 702.237,-162.81 709.549,-118.103"/>
<polygon fill="black" stroke="black" points="713.004,-118.666 711.164,-108.232 706.095,-117.536 713.004,-118.666"/>
</g>
<!-- src/Yoneda/YonedaLemma&#45;&gt;src/Base/Functor -->
<g id="edge40" class="edge"><title>src/Yoneda/YonedaLemma&#45;&gt;src/Base/Functor</title>
<path fill="none" stroke="black" d="M673.608,-287.693C667.177,-268.793 655.09,-238.254 637.982,-216 629.504,-204.972 618.333,-194.733 607.701,-186.252"/>
<polygon fill="black" stroke="black" points="609.79,-183.444 599.728,-180.126 605.525,-188.995 609.79,-183.444"/>
</g>
<!-- src/Yoneda/YonedaLemma&#45;&gt;src/Base/Natrans -->
<g id="edge41" class="edge"><title>src/Yoneda/YonedaLemma&#45;&gt;src/Base/Natrans</title>
<path fill="none" stroke="black" d="M653.296,-287.876C639.694,-278.808 622.81,-267.552 608.121,-257.759"/>
<polygon fill="black" stroke="black" points="610.029,-254.825 599.767,-252.19 606.146,-260.649 610.029,-254.825"/>
</g>
</g>
</svg>
